<svg xmlns="http://www.w3.org/2000/svg" width="600" height="600" viewBox="0 0 600 600">
  <defs>
    <linearGradient id="grad1" x1="0%" y1="0%" x2="100%" y2="100%">
      <stop offset="0%" style="stop-color:#ecf0f1;stop-opacity:1" />
      <stop offset="100%" style="stop-color:#bdc3c7;stop-opacity:1" />
    </linearGradient>
  </defs>
  <rect width="600" height="600" fill="url(#grad1)" rx="10" ry="10" />
  
  <!-- Silhueta do fotógrafo -->
  <g transform="translate(150, 100)">
    <!-- Cabeça -->
    <circle cx="150" cy="100" r="80" fill="#2c3e50" />
    
    <!-- Corpo -->
    <path d="M100,180 L100,400 L200,400 L200,180 Z" fill="#2c3e50" />
    
    <!-- Braços -->
    <path d="M100,200 L50,300 L80,320 L120,220 Z" fill="#2c3e50" />
    <path d="M200,200 L280,280 L260,310 L190,230 Z" fill="#2c3e50" />
    
    <!-- Câmera -->
    <rect x="220" y="280" width="80" height="60" rx="5" ry="5" fill="#34495e" />
    <circle cx="260" cy="310" r="15" fill="#7f8c8d" />
    <rect x="220" y="270" width="30" height="10" fill="#34495e" />
  </g>
  
  <!-- Elementos decorativos -->
  <g fill="#3498db" fill-opacity="0.1">
    <circle cx="100" cy="100" r="30" />
    <circle cx="500" cy="150" r="40" />
    <circle cx="450" cy="450" r="50" />
    <circle cx="150" cy="500" r="35" />
  </g>
  
  <!-- Linhas decorativas -->
  <g stroke="#3498db" stroke-width="2" stroke-opacity="0.2" fill="none">
    <path d="M50,50 L550,50" />
    <path d="M50,550 L550,550" />
    <path d="M50,50 L50,550" />
    <path d="M550,50 L550,550" />
  </g>
</svg>